Patient4_TMGait_0pt6_01_right_46_EMG.mot
version=1
nRows=23
nColumns=33
inDegrees=no
endheader
time	1LAddLong	2LGlutMax	3LGlutMed	4LIliopsoas	5LSemiMemb	6LBicFemLong	7LRecFem	8LVastMed	9LVastLat	10LGasMed	11LTibAnt	12lTibPost	13LPeroneusLong	14LSol	15LExtDigLong	16LFlexDigLong	17RAddLong	18RGlutMax	19RGlutMed	20RIliopsoas	21RSemiMemb	22RBicFemLong	23RRecFem	24RVastMed	25RVastLat	26RGasMed	27RTibAnt	28RTibPost	29RPeroneusLong	30RSol	31RExtDigLong	32RFlexDigLong
56.225	-0.005951	0.059052	0.005035	-0.014801	0.085144	-0.026703	-0.020599	0.006866	0.075684	0.011292	0.02121	-0.004425	0.0354	0.014496	-0.021667	-0.009918	0.014954	-0.23773	0.29236	-0.045471	0.10407	0.021057	-0.071411	-0.018463	0.039368	-0.011597	0.003204	0.002747	-0.040283	-0.31128	0.003815	-0.005341
56.226	0.020447	0.078583	0.006714	-0.014954	0.061951	-0.046692	-0.023651	0.00885	0.069733	0.014801	0.034943	-0.012054	0.044403	0.021973	-0.031891	-0.005798	0.015259	-0.20676	0.53268	-0.032196	0.12543	0.007477	-0.077972	-0.024109	0.041809	-0.006256	0.019226	0.012817	-0.015869	-0.61737	0.011749	-0.005798
56.227	0.023651	0.10315	0.003052	-0.014801	0.016632	-0.018005	-0.025482	0.00412	0.051422	0.00885	0.017242	-0.002289	0.076599	0.012207	-0.027313	-0.009918	0.025024	-0.18616	0.793	0.042267	0.12894	-0.002594	-0.041351	0.010071	0.000916	-0.004883	0.016937	0.064392	0.007324	-0.70404	0.011902	-0.004578
56.228	0.024414	0.12955	0.009003	-0.011292	-0.029602	0.034027	-0.03067	-0.000153	0.09491	0.00412	-0.004425	-0.007172	0.083008	0.030518	-0.028076	-0.011139	0.016479	-0.21744	0.31494	0.085907	0.099792	0.022583	-0.023346	-0.027618	-0.012665	-0.000916	0.034485	0.013123	-0.031281	-0.60211	0.010681	-0.015259
56.229	0.017395	0.13504	0.007019	0.000458	-0.01709	0.023346	0.00351	0.010376	0.18158	0.001526	0.002441	-0.000763	0.036163	0.019836	-0.007324	-0.00351	0.018616	-0.22079	-0.13351	0.0737	0.040588	0.018768	-0.084686	0.011292	-0.014191	-0.003052	0.039825	0.017242	-0.056152	0.045929	0.008087	-0.008698
56.23	0.015717	0.14725	-0.015106	0.002441	0.0354	0.046692	0.002441	0.014496	0.10223	-0.005341	0.006866	-0.005035	0.025787	0.027771	0.021362	-0.004883	0.030975	-0.21393	-0.093842	0.027924	0.014038	-0.009003	-0.088806	0.026245	0.031281	-0.001526	0.061951	0.014038	-0.017242	0.46646	0.011444	-0.005493
56.231	0.006561	0.15762	-0.011139	0.001373	0.044556	0.080414	0.023804	0.01358	-0.002441	-0.022125	0.005646	-0.008087	0.061188	0.056152	0.065918	-0.001831	0.050659	-0.18463	-0.14877	-0.037231	0.10346	-0.042725	-0.059509	0.01297	0.02243	0.004272	0.066833	0.013428	-0.005341	0.27237	0.010834	-0.011749
56.232	0.009918	0.18631	0.027771	-0.01297	0.024567	0.068054	-0.030365	0.007782	-0.073853	-0.032806	-0.054169	-0.001526	0.13336	0.067444	0.06485	-0.001526	0.046387	-0.17105	0.61661	-0.1329	0.1088	-0.070496	-0.043945	-0.025787	0.019073	0.010376	0.056152	-0.024261	0.016479	0.15686	0.010681	-0.007172
56.233	0.012054	0.24277	0.024109	-0.007629	0.023193	0.062714	-0.069427	-0.001221	-0.10925	-0.023346	0.002594	0.009766	0.12466	0.092926	0.044098	-0.016937	0.036774	-0.19898	1.4162	-0.19226	0.13489	-0.022583	-0.00824	0.000153	0.009308	0.010986	0.050201	-0.028229	0.032196	0.038147	0.00946	-0.009308
56.234	0.003052	0.22354	0.007019	0.00061	0.017242	0.077362	-0.12512	0.007172	-0.11063	-0.009613	0.084534	0.001984	0.060425	0.074158	0.061951	-0.007782	-0.016632	-0.1944	0.95245	-0.083923	0.15259	-0.04303	-0.11276	0.062866	0.046997	0.019379	0.025787	-0.023193	-0.11749	-0.031586	0.005035	-0.019836
56.235	-0.006561	0.15518	0.004272	0.024414	0.019836	0.080261	-0.19638	0.001526	-0.083008	-0.001831	0.061188	-0.000458	0.088196	0.042267	-0.044556	-0.018005	-0.034637	-0.23377	0.087738	0.020142	0.16007	0.008087	-0.14465	0.062103	0.030518	0.010681	0.030823	-0.019226	-0.46463	-0.066528	0.010376	-0.021667
56.236	-0.011444	0.044556	0.007782	0.033417	0.02243	0.031433	-0.16098	0.001984	0.023956	0.001678	0.008698	0.003052	0.086212	0.025482	-0.14572	-0.014343	-0.033875	-0.17197	0.39841	0.16998	0.16953	-0.002136	-0.1149	0.036469	0.017853	0.05249	0.074158	-0.023346	-0.69076	-0.078125	0.010376	-0.019836
56.237	-0.024261	-0.033112	-0.016479	0.008698	0.006104	-0.057831	-0.070801	0.007324	0.11734	-0.000153	-0.051727	-0.001068	0.10346	0.007629	0.002289	0.004883	-0.035553	-0.14542	0.61371	0.12787	-0.009918	0.10025	-0.077057	0.017548	0.003052	0.042725	0.04425	-0.028076	-0.62515	-0.052185	0.011444	-0.011902
56.238	-0.031281	-0.11353	0	0.005035	-0.019989	-0.1062	-0.071259	0.020447	0.15762	-0.011902	-0.080109	0.000153	0.079651	0.00412	0.34363	-0.013428	0.001678	-0.15656	0.37308	0.037994	0.028229	-0.007935	-0.079803	0.001221	0.006561	0.01709	0.034027	-0.033264	-0.57098	-0.027161	0.011749	-0.014648
56.239	-0.029907	-0.093384	0.019073	0.005951	-0.041046	-0.2002	0.000153	0.012665	0.10742	0.017548	-0.041962	0.009613	0.062561	-0.00946	0.049438	-0.000153	0.019836	-0.1741	0.54169	0.10193	0.02594	-0.068817	-0.050659	0.016022	0.010223	-0.02182	0.019684	-0.052338	0.2005	-0.04303	0.015717	-0.015717
56.24	-0.020599	-0.050049	0.029907	-0.000763	-0.023041	-0.11459	-0.039825	0.006561	0.054169	0.012054	-0.021515	-0.000153	0.06012	0.007324	0.02594	-0.010376	0.026398	-0.20264	0.40359	0.12024	-0.013275	-0.12634	-0.017242	0.004425	-0.001678	-0.036926	-0.004425	-0.056915	0.34256	-0.037994	0.012207	-0.014954
56.241	-0.022583	-0.023651	0.022888	0.003815	0.001984	-0.016785	0.011902	0.001526	-0.00946	0.000916	-0.03418	0.001831	0.074005	0.031891	-0.10437	-0.031433	0.016785	-0.19165	0.23789	0.10147	-0.024872	-0.11215	-0.085297	0.003204	0.003815	-0.018768	-0.044556	0.01709	0.3743	0.025635	0.005188	-0.014038
56.242	-0.024872	0.021057	0.016632	0.007324	0.023804	0.13382	0.058746	0.000916	-0.018158	-0.003967	-0.054932	0.005798	0.079498	0.018921	-0.094147	-0.005646	-0.013123	-0.14877	0.22659	-0.024719	0.1297	-0.16815	-0.07782	0.077057	0.026703	-0.00824	-0.014343	0.112	0.42541	-0.075073	0.010529	-0.017853
56.243	-0.010529	0.055847	0.009308	0.007782	0.017395	0.12451	0.10696	0.014954	-0.019684	0.005798	-0.046997	0.000916	0.079498	0.050049	-0.097656	-0.007019	0.004272	-0.21881	0.20416	-0.089569	0.18417	-0.20721	-0.074463	-0.032043	0.012054	-0.01236	0.00946	0.01236	0.4718	0.61401	0.014648	-0.018921
56.244	-0.000763	0.13901	0.016022	0.002747	0.029907	0.14389	0.07019	0.032043	-0.05249	-0.000153	-0.041199	0.006714	0.068054	0.022888	-0.074768	-0.007629	0.016632	-0.25024	0.18753	-0.08667	0.1358	-0.1796	-0.058746	-0.057831	0.00351	0.000916	0.004425	0.18814	0.18982	0.50262	0.011597	-0.014496
56.245	0.032043	0.28656	0.043945	-0.002441	0.02655	0.10529	-0.037689	0.038757	-0.0177	0.015869	-0.060425	0.005035	0.068817	0.023346	0.008392	-0.001068	0.018768	-0.21759	0.54459	-0.026245	0.10925	-0.19501	-0.049896	-0.015106	-0.015106	0.017395	0.008392	-0.41885	-0.26169	0.59097	0.011749	-0.010071
56.246	0.023346	0.31738	0.023499	-0.001526	0.038452	0.088806	-0.085144	0.036926	0.05188	-0.002899	-0.041962	-0.000763	0.054626	0.034332	0.000916	-0.012817	0.028076	-0.2179	0.3215	0.033722	0.04715	-0.15167	-0.087738	-0.034943	0.006714	-0.020447	0.019836	-1.039	-0.48721	0.70175	0.009766	-0.008698
56.247	0.03067	0.30685	0.017853	-0.00412	0.041962	0.15793	-0.037994	0.015411	0.16632	0.002289	-0.005188	0.001984	0.03891	0.028839	-0.033722	-0.00946	0.041962	-0.2385	0.11932	-0.003662	0.026398	-0.20309	-0.075836	-0.072174	-0.004883	-0.042114	-0.038605	0.55618	-0.36407	0.16678	0.011292	-0.008698
